<svg xmlns="http://www.w3.org/2000/svg" width="40" height="38" fill="none" viewBox="0 0 40 38"><g clip-path="url(#a)"><path fill="#17B5E9" fill-rule="evenodd" d="M33.533 21.08c0 9.294-7.489 16.822-16.721 16.822-9.233 0-16.715-7.528-16.715-16.821 0-9.296 7.482-16.822 16.715-16.822 9.232 0 16.721 7.526 16.721 16.822Z" clip-rule="evenodd"/><path fill="#005695" fill-rule="evenodd" d="M13.964 18.416c-.011-.026-.063-.028-.114-.005-.052.023-.085.063-.073.089.011.026.063.028.114.005.052-.023.085-.063.073-.089Z" clip-rule="evenodd"/><path fill="#005695" fill-rule="evenodd" d="M3.316 11.137c1.918-2.573 4.698-5 9.616-6.429 0 0 .277.445.42.497.142.052.201.047.23.036.029-.01.144-.122.108-.14-.035-.02-.092-.06-.083-.095.009-.035.026-.04.072-.034.046.004.479.022.546.053.068.032.194.147.194.262 0 0-.012.031.042.046.053.015.034.073.031.095-.002.022-.012.062-.025.074-.013.012-.016.129-.006.144.01.014.114.09.13.114.017.026.011.071.025.085.015.013.083.013.1.023s.043.038.058.037a.736.736 0 0 0 .121-.096c.015-.015.047-.03.065-.047a.326.326 0 0 0 .042-.153c-.005-.032-.031-.088-.004-.1.028-.012.365.03.412.039.046.01.05.08.062.09.013.01.178.09.229.095.05.005.194.014.228-.003.034-.016.017-.109.043-.121.027-.012.384-.034.42-.034.037 0 .093.075.11.09a.243.243 0 0 0 .097.049.614.614 0 0 0 .222-.057.045.045 0 0 0 .005-.058c-.009-.012-.06-.044-.055-.054.005-.01.289.066.325.081.036.015.187.137.216.159.03.022.048.048.073.048.024 0 .045-.026.074-.027a.626.626 0 0 1 .176.02c.046.017.189.04.23.044.042.004.063.03.073.051.01.023.058.037.1.042.04.005.145.024.212 0 .067-.022.161-.095.188-.115a.219.219 0 0 1 .121-.044c.049 0 .103.072.148.11.046.038.185.366.201.408.018.041.051.061.115.066.063.005.4.03.441.024.042-.005.044-.02.058-.039a.115.115 0 0 1 .07-.044c.035-.007.073-.021.105-.024.032-.003.056.022.066.041.01.02.063.132.07.163.007.03.032.03.053.033.022.002.09.058.105.078.014.02.029.017.056-.012.026-.03.06-.047.053-.113a.232.232 0 0 0-.058-.136c-.025-.025-.015-.064.014-.086.03-.022.143-.005.175.01.031.014.091.096.117.112.026.015.269.147.422.188.153.042.5.164.602.24.101.075.237.263.393.358.155.096.281.181.405.223.029.01.031-.017.007-.04a1.125 1.125 0 0 1-.192-.268c-.026-.08.056-.227.083-.276.027-.049.165-.432.191-.513.027-.08.103-.248.21-.266.13-.022.286.151.368.227.082.076.228.277.33.327.18.088.473.215.735.418.262.203.294.198.415.19.122-.007.267-.083.425-.236.07-.069.136.002.16.031.024.03.036.142.199.159.163.017.502.024.648.085.146.062.405.313.466.384 0 0 .014.036.063.007.048-.03 0 .093-.005.135-.005.04-.09.35-.074.407.016.056.07.225.116.273.045.047.455.284.499.303.044.02.096-.082.075-.129-.02-.047-.09-.159-.087-.188.002-.03.37-.435.448-.49 0 0 .92.749 1.345 1.2.425.452 5.167 5.006 4.923 12.693 0 0-.134.059-.214.003-.08-.057-.185-.318-.262-.337-.037-.01-.892.1-1.805.163-.969.067-2.002.087-2.142.02a1.273 1.273 0 0 1-.53-.489c-.078-.137-.337-.742-.052-1.758.284-1.016.66-1.888.944-2.337 0 0 .208-.261-.038-.424-.246-.163-.99-.573-1.372-1.413l-.084-.351c-.024-.097-.12-.238-.135-.312-.014-.073.053-.248 0-.391-.053-.144-.383-.777-.723-.998-.158-.123-.107-.214-.132-.311-.026-.098-.148-.492-.272-.543-.123-.05-.304-.108-.33-.213-.026-.104.058-.293.02-.378-.04-.084-.182-.338-.266-.338-.084 0-.068.058-.045.11.022.053-.123.053-.214.046-.09-.006-.162-.143-.213-.195-.052-.052-.214-.228-.952.013-.478.143-.705-.124-.925-.684-.22-.56-.265-.625-.278-.755-.013-.13.2-.026.058-.273-.142-.248-.466-1.264-.576-1.537-.11-.274-.187-.241-.175-.11.013.13-.297.299-.53.103-.233-.195-.434-.52-.55-.41-.065.065-.013.182-.104.189-.09.006-.294.04-.11.462.195.443-.11.397-.232.443-.123.046-.377.096-.409.185-.032.089-.019.642-.064.661-.056.025-.207-.117-.369-.214-.162-.098-.256-.334-.335-.226-.079.108-.124.844-.105.974.02.13.04.47.02.638-.02.17-.08.337-.101.39-.022.053.007.22-.017.234-.025.015-.044-.012-.07.06-.026.072 0 .365-.09.345-.091-.02-.162-.293-.24-.43-.077-.136-.259-.351-.291-.533-.032-.183.052-.228-.052-.385-.083-.124.004-.214.052-.267.048-.052.181-.012.336-.28.156-.267.343-.722.389-.892.045-.169-.026-.41-.136-.377-.11.032-.123.254-.175.338-.052.085-.142.078-.226.04-.085-.04-.26-.19-.457-.076s-.268.277-.326.453c-.059.176-.389.488-.563.436-.175-.052-.305-.247-.434-.247-.13 0-.873.033-1.294.67-.097.157-.032.398-.117.47-.084.071-.297-.044-.375-.006a.519.519 0 0 0-.02.858c.11.098.357.014.486.144.13.13.11.735.071 1.185-.039.449-.006.553-.103.683-.097.13-.266.313-.382.606-.117.293-.09.625-.382.853-.29.228-.692.28-.77.313-.078.032-.116.15-.142.247-.015.054-.07.215-.168.39-.08.141-.194.294-.272.398-.071.078-.071.263-.049.317.023.054.381.336.379.653.017.048.031.016.048.006.04-.019.005.513-.543.772-.141.054-.265.038-.246-.09.018-.13.117-.386.084-.444a.458.458 0 0 1-.053-.168c-.004-.04.028-.084.024-.13-.003-.047-.09-.237-.144-.257-.053-.02-.14-.049-.15-.083-.01-.034.1-.325.053-.41-.048-.085-.16-.14-.197-.114-.036.026-.235.202-.298.085-.063-.118-.005-.127 0-.162.005-.034.082-.327-.039-.341-.121-.015-.228.053-.291.244-.063.19-.1.275-.199.298-.044.01-.087-.113-.175.029-.087.142.14.4.31.44.17.039.442.073.442.131 0 .059-.184.171-.233.235-.048.063-.402.595-.155.776.088.078.05.166.02.225-.032.059.01.296.034.38.024.084-.059.152.043.323s.165.435.117.581c-.049.147-.131.176-.15.279-.02.102-.137.517-.573.937-.093.098-.107.274-.156.337-.048.064-.315.22-.383.259-.068.04-.146.156-.194.19-.049.035-.422.181-.553.342-.061.075-.084.182-.131.269-.056.1-.134.178-.17.22 0 0-.026.048.003.19 0 0-.032.156-.13.01-.097-.147-.116-.298-.17-.357-.053-.058-.354.015-.373.337 0 0 .01.113.17.127.16.015.111.205.068.25-.044.043.039.185.082.283.044.097.301.43.194 1.098-.053.352-.063.547-.165.577-.101.029-.262.068-.364.395-.053.147-.237.205-.32-.01-.082-.214-.286-.761-.582-.83-.2-.039-.19.025-.175.157.015.131-.044.683.02.825.063.141.732 1.148.81 1.401.077.254.182.718.089.767-.094.049-.56-.786-.642-.918-.083-.132-.175-.361-.224-.459-.048-.098-.029-.18-.068-.264-.038-.083-.242-.337-.3-.527-.059-.19-.049-.537-.078-.674-.028-.13-.16-.64-.184-.786-.025-.147-.039-.536-.134-.542-.095-.005-.133.175-.196.18-.064.005-.102-.068-.122-.21-.02-.141-.208-.625-.276-.79-.068-.167-.088-.753-.33-.895-.243-.141-.374-.117-.622.22-.123.169-.309.477-.504.733-.196.255-.4.459-.515.542-.228.166-.361.318-.307.43 0 0 .157.068.099.205-.059.136-.136.239-.068.43.068.19.126.424.092.722s-.092.42-.19.43c-.096.01-.29-.308-.354-.523-.063-.215-.46-1.006-.524-1.103-.063-.098-.267-.967-.296-1.182-.03-.215-.005-.469-.136-.508-.13-.039-.233-.176-.31-.39-.078-.216-.374-.591-.437-.68-.063-.087-.048-.339-.16-.36-.112-.02-.228.102-.277.038-.048-.063-.126-.107-.126-.17 0-.064.024-.206-.146-.162-.17.044-.407.215-.601-.058-.195-.274-.272-.48-.427-.503-.156-.025-.832-.012-.853.072-.01.041.078.103.125.181.047.081.053.18.09.218.075.076.244.076.37.232.073.073.306.088.355.102.048.015.204.181.233.23.029.049.092.073.15.044.058-.03.165.068.136.22-.029.15-.058.166.015.341.019.06-.09.296-.146.513-.044.172-.027.337-.078.366-.135.079-.199.064-.31.235-.112.17-.186.148-.256.189-.07.04-.341.485-1.001.372 0 0-1.18-6.52 3.072-12.223Z" clip-rule="evenodd"/><path fill="#005695" fill-rule="evenodd" d="M10.991 26.342c.09-.132.231-.227.25-.292.02-.065.035-.358.172-.43.138-.072.54-.05.592.036.053.086.005.228-.056.293-.06.065-.1.134-.113.312-.012.178-.064.51-.02.611.045.102.111.305.064.351a.361.361 0 0 0-.116.217c-.012.1-.028.271-.056.3-.028.028-.1.21-.117.25-.016.041-.076.078-.085.11-.008.032-.257.186-.708-.138-.089-.065-.087-.139-.089-.223-.002-.083-.004-.15-.028-.145-.024.004-.105-.098-.109-.133-.004-.034-.036-.24-.076-.28-.04-.041-.177-.17-.145-.454.02-.073.1-.211.274-.256.173-.044.253.037.366-.13ZM11.78 30.32c.187-.176.465-.352.647-.398.18-.045.265-.175.323-.293.058-.117.388-.287.434-.41.045-.123.116-.104.187-.078.071.026.065.195.11.195.046 0 .266-.292.33-.436.065-.143.15-.475.583-.43.433.046.453.15.414.241-.04.091-.27.228-.233.293.039.065.082.219.157.302.076.082.446.378.513.357.068-.02.212-.258.237-.367.025-.11.012-.324-.04-.39-.052-.065.026-.397.162-.442.097-.033.24.052.265.15.026.097.097 1.113.272 1.386.174.274.306.432.298.568-.007.136-.091.377-.04.455.052.078.169.11.162.228-.006.117-.244.659-.303.752-.06.094-.247.237-.37.491s-.46.723-.563.769c-.103.045-.601.071-.666 0-.065-.072-.296-.588-.4-.63-.105-.04-.331-.139-.383-.269-.052-.13-.09-.163-.272-.202-.181-.039-.369-.065-.543.052-.132.089-.085.248-.246.306-.162.059-.485.215-.693.157-.207-.059-.368-.554-.44-.71-.07-.156-.232-.417-.207-.508.026-.091.16-.267.103-.339-.057-.071-.368-.266.202-.8ZM12.257 37.273s.344-.725 1.75-.896c.317-.045.476-.08.635-.262.159-.182.635-.33.748-.4.113-.068.087-.19.291-.14.123.028.301.136.32.214.027.107.318-.125.496-.156.446-.078 1.873.03 2.63.566 0 0 .049.098.194-.029.146-.127.951.166 1.456.352.201.074.286.246.407.37.184.189.351.327.351.327s-3.928 1.538-9.278.054Z" clip-rule="evenodd"/><mask id="b" width="40" height="38" x="0" y="0" maskUnits="userSpaceOnUse" style="mask-type:alpha"><path fill="#fff" d="M0 38h40V0H0v38Z"/></mask><g fill-rule="evenodd" clip-rule="evenodd" mask="url(#b)"><path fill="#FEFEFE" d="M16.775 37.938h.194V4.203h-.194v33.735Z"/><path fill="#FEFEFE" d="M.094 21.302H33.53v-.195H.094v.195Z"/><path fill="#FEFEFE" d="M16.913 37.853c-.065-.037-6.499-3.855-6.499-16.662 0-12.809 6.41-16.781 6.475-16.82l-.099-.168c-.067.04-1.67 1.012-3.294 3.6-1.494 2.382-3.276 6.637-3.276 13.388 0 6.75 1.789 10.964 3.29 13.31 1.308 2.045 2.603 3.05 3.098 3.388l.305-.036Z"/><path fill="#FEFEFE" d="M17.183 37.866c.518-.359 1.785-1.365 3.064-3.365 1.501-2.346 3.29-6.56 3.29-13.31 0-6.75-1.782-11.006-3.276-13.388-1.624-2.588-3.227-3.56-3.294-3.6l-.099.168c.065.039 6.475 4.011 6.475 16.82 0 12.807-6.434 16.625-6.5 16.662l.34.013Z"/><path fill="#FEFEFE" d="M16.887 37.895c-.03-.008-3.074-.73-6.076-3.142-2.767-2.223-6.065-6.38-6.065-13.563 0-7.182 3.292-11.368 6.053-13.615 2.996-2.438 6.033-3.185 6.063-3.193l-.045-.19c-.03.007-3.104.763-6.134 3.226-2.797 2.274-6.131 6.51-6.131 13.772 0 7.264 3.341 11.471 6.145 13.721a17.789 17.789 0 0 0 5.59 3.015l.6-.032ZM17.542 37.91a17.802 17.802 0 0 0 5.544-2.999c2.803-2.25 6.145-6.457 6.145-13.72 0-7.264-3.334-11.499-6.132-13.773-3.03-2.463-6.103-3.219-6.133-3.226l-.045.19c.03.008 3.067.755 6.063 3.193 2.761 2.247 6.053 6.433 6.053 13.616 0 7.181-3.299 11.34-6.066 13.563-3.002 2.412-6.045 3.134-6.075 3.14l.646.017Z"/><path fill="#FEFEFE" d="M2.013 13.28c.05.028 5.13 2.851 14.827 2.851 9.696 0 14.775-2.77 14.826-2.799l-.095-.17c-.05.027-5.09 2.774-14.731 2.774S2.158 13.138 2.108 13.11l-.095.17ZM6.307 7.954c.042.03 4.31 3.066 10.54 3.066 6.228 0 10.467-3.016 10.509-3.046l-.168-.138c-.042.03-4.178 2.989-10.342 2.989-6.164 0-10.334-2.969-10.376-2.999l-.163.128ZM12.954 4.702c.014.016 1.41 1.65 3.912 1.65s3.757-1.554 3.81-1.62l-.153-.121c-.012.015-1.252 1.545-3.657 1.545-2.408 0-3.705-1.527-3.718-1.543l-.194.089ZM2.013 28.971l.095.17c.05-.028 5.09-2.826 14.732-2.826 9.64 0 14.682 2.747 14.732 2.775l.094-.171c-.05-.028-5.13-2.8-14.826-2.8-9.697 0-14.777 2.824-14.827 2.852ZM6.365 34.258l.113.158c.042-.03 4.204-2.99 10.368-2.99 6.164 0 10.25 2.902 10.29 2.932l.113-.16c-.04-.029-4.174-2.967-10.403-2.967-6.23 0-10.439 2.996-10.48 3.027ZM13.249 37.522c.338-.341 1.577-1.427 3.617-1.427 2.05 0 3.221 1.07 3.53 1.395l.234-.03c-.05-.064-1.262-1.56-3.764-1.56s-3.806 1.532-3.86 1.597l.243.025Z"/><path fill="#FEFEFE" d="M.194 21.08c0-9.221 7.455-16.724 16.617-16.724 9.167 0 16.625 7.503 16.625 16.725 0 9.221-7.458 16.724-16.625 16.724C7.65 37.805.194 30.302.194 21.08Zm-.194 0C0 30.41 7.542 38 16.811 38c9.274 0 16.82-7.59 16.82-16.92 0-9.329-7.546-16.92-16.82-16.92C7.541 4.16 0 11.752 0 21.08Z"/><path fill="#FEFEFE" d="M28.96 20.164c.8-.176.821-.609.821-.609 1.992-.77 1.415-1.994 1.415-1.994 1.537-1.178.792-2.156.792-2.156.876-.662 1.047-1.467 1.047-1.467.097-.735-.694-1.002-.694-1.002 1.262-1.554.303-2.854.303-2.854 1.363-3.204.055-3.559.055-3.559.377-1.476-.1-2.136-.1-2.136-.383-.72-.62.035-.62.035-1.025 3.773-2.62 5.814-2.62 5.814-1.219 1.71-2.89 3.06-2.89 3.06s-1.8.908-2.208 1.63c-.31.821 1.564 4.873 1.806 5.158.35.41 1.029.586 1.727.468.284-.047 1.165-.388 1.165-.388Z"/><path fill="#005695" d="M28.935 20.27c.682-.153.889-.514.924-.652.744-.296 1.22-.69 1.411-1.173.069-.174.092-.335.092-.473 0-.173-.036-.308-.061-.383.56-.443.88-.911.944-1.391a1.215 1.215 0 0 0-.14-.772c.835-.664 1.009-1.436 1.016-1.47l.001-.003v-.003c.007-.047.01-.091.01-.134 0-.535-.443-.814-.653-.916.454-.597.598-1.158.598-1.623 0-.625-.251-1.072-.334-1.204.457-1.086.608-1.85.608-2.383 0-.357-.067-.61-.153-.789a.897.897 0 0 0-.397-.43c.095-.393.132-.73.132-1.01 0-.74-.242-1.095-.263-1.123-.133-.248-.27-.363-.416-.35-.232.022-.347.368-.359.407-1.009 3.713-2.59 5.766-2.606 5.786-1.17 1.642-2.772 2.962-2.866 3.039l-.262.117c.02.057.027.119.037.177l.317-.142.01-.007c.016-.013 1.693-1.377 2.905-3.078.013-.017 1.616-2.095 2.634-5.842.033-.107.123-.273.206-.28.031-.003.12.017.25.264l.003.005.003.005c.004.005.23.333.23 1.03 0 .283-.038.626-.142 1.032l-.02.084.081.024c.01.002.223.067.369.378.075.16.133.387.133.706 0 .513-.15 1.263-.614 2.355l-.02.046.03.041c.022.03.336.47.336 1.132 0 .454-.147 1.011-.636 1.613l-.08.099.12.04c.028.01.643.228.643.798 0 .034-.003.07-.007.107-.011.046-.2.795-1.013 1.41l-.07.054.053.071a.982.982 0 0 1 .165.563c0 .369-.185.889-.942 1.468l-.056.044.03.064a1.094 1.094 0 0 1-.01.785c-.179.444-.634.81-1.356 1.09l-.052.02-.004.057c-.002.014-.092.392-.806.55l.047.17Z"/><path fill="#005695" d="M32.614 6.504c-.007.027-.653 2.772-2.301 4.656a.089.089 0 0 0 .008.125.088.088 0 0 0 .124-.008c1.677-1.919 2.334-4.706 2.34-4.734a.088.088 0 0 0-.066-.106.087.087 0 0 0-.105.067ZM32.562 10.048c-.006.016-.673 1.589-2.162 2.646a.089.089 0 0 0-.02.123c.027.04.082.05.122.021 1.53-1.087 2.216-2.705 2.223-2.721a.088.088 0 1 0-.163-.068ZM32.274 12.879c-.011.013-1.14 1.352-2.218 1.6a.089.089 0 0 0-.066.107.088.088 0 0 0 .106.066c1.135-.261 2.265-1.602 2.313-1.66a.089.089 0 0 0-.01-.124.087.087 0 0 0-.125.011ZM31.934 15.336c-.013.01-1.35 1.068-2.44 1.115a.088.088 0 0 0-.083.092.088.088 0 0 0 .091.084c1.147-.049 2.485-1.108 2.541-1.152a.09.09 0 0 0 .015-.125.088.088 0 0 0-.124-.014ZM31.144 17.49c-.012.008-1.181.865-2.39.672a.088.088 0 0 0-.101.073.09.09 0 0 0 .073.101c1.283.206 2.472-.667 2.522-.705a.089.089 0 0 0 .018-.123.087.087 0 0 0-.122-.019ZM28.399 19.406a.089.089 0 0 0 .042.117c.725.347 1.596.019 1.626.007a.089.089 0 0 0-.067-.164c-.007.003-.83.31-1.484-.003a.088.088 0 0 0-.117.043Z"/><path fill="#FEFEFE" d="M18.46 16.904s-.68-5.43-.653-5.63c0 0-.222-1.398.368-2.967 0 0 .508-1.287 1.044-2.28 0 0 1.144-2.068 1.893-4.61 0 0 .215-.64.242-.89.06-.36.28-.636.568-.256 0 0 .466.577.387 1.67 0 0 .358-.643.684.031 0 0 .252.603.242 1.36 0 0 .493-.633.701-.19 0 0 .56.783.108 2.065 0 0 .977-.01.837 1.098 0 0-.075.848-.469 1.427 0 0 .64-.863 1.013-.289 0 0 .532.732.005 1.973 0 0-.329.769-.66 1.1 0 0 1.182-1.156 1.53-.582 0 0 .312.538-.292 1.737 0 0-.382.725-.624.925 0 0 1.052-.81 1.317-.424 0 0 .322.589-.227 1.224 0 0-.522.593-.865.746 0 0 .655-.272.8-.25 0 0 .614.041.691.747 0 0-.021.713-.63 1.18 0 0 .761-.21.942.642 0 0 0 .679-.362 1.12 0 0 .865.332.48 1.035 0 0-.39.504-.727.563 0 0 2.531 1.564 4.562 1.447 0 0 1.745.036 3.773-.662l3.537-.976s.861-.352.767.421c0 0-.162 1.492-1.424 1.976 0 0 1.709-.543 1.89.547 0 0 .136.902-1.349 1.363 0 0 .982.12.982.907 0 0 .08.508-.82.856 0 0-.628.098-.884.017 0 0 .773.292.689.888 0 0-.015.555-1.183.873 0 0-.85.178-1.303-.16 0 0 .91.606-.152 1.326 0 0-1.293.662-2.34-.392 0 0 .46.815-.634 1.05 0 0-1.066.183-1.549-.457 0 0-.854.572-1.358.35 0 0-.789-.18-.96-.853 0 0-.093.932-1.42.754 0 0-1.145-.27-.829-1.618 0 0-1.143.799-1.711.05 0 0-.223-.19.186-.774.126-.168 1.876-2.336 1.876-2.336s-2.524 1.015-6.078-.114c0 0-1.9-.723-3.099-2.447 0 0-1.025-1.591-2.091-1.591 0 0-.4-.047-.71.187 0 0-.066-.489.13-.976 0 0-.322-1.104.377-1.768 0 0 1.017-1.258 2.782-.163Z"/><path fill="#005695" d="M18.548 16.893c-.266-2.12-.654-5.32-.654-5.597v-.011l.002-.01-.002-.015a4.73 4.73 0 0 1-.039-.66c0-.548.071-1.381.402-2.262.005-.012.512-1.292 1.04-2.269a25.99 25.99 0 0 0 1.9-4.627c.007-.023.217-.648.244-.906.032-.187.112-.337.195-.357.057-.014.134.038.216.146.006.008.445.569.37 1.609l.163.05c.035-.061.16-.235.28-.231.104.003.193.142.25.258 0 0 .241.592.232 1.32l-.003.26.16-.205c.1-.128.31-.327.44-.312.016.002.066.007.113.106l.003.007.005.007c.005.007.527.765.097 1.984l-.042.118h.125c.004 0 .363 0 .584.252.15.171.206.422.165.745-.001.012-.078.837-.454 1.39l.142.102c.096-.128.396-.458.637-.45.09.002.166.054.232.156.024.032.497.715-.002 1.89-.003.007-.326.757-.641 1.072l.123.126c.22-.214.865-.76 1.221-.714.076.01.131.046.173.115.002.003.274.52-.296 1.65-.103.197-.414.743-.6.897l.108.139c.203-.157.794-.553 1.084-.506a.15.15 0 0 1 .106.06.863.863 0 0 1 .081.38c0 .202-.063.464-.3.738-.005.005-.513.58-.835.724l.07.162c.304-.126.679-.256.753-.245.029.003.546.05.616.664-.004.068-.057.692-.596 1.105l.076.156c.003 0 .288-.075.525.071.153.095.256.262.307.497-.001.058-.02.66-.342 1.052l-.078.094.114.045c.004.001.389.153.496.45a.45.45 0 0 1 .027.156.635.635 0 0 1-.085.3c-.108.137-.424.48-.668.522l-.23.04.199.122c.104.065 2.578 1.578 4.613 1.46.011.002 1.777.03 3.797-.665l3.537-.976.005-.001c.106-.044.415-.132.56-.02.078.06.106.177.086.347-.002.016-.173 1.445-1.368 1.904l.057.167c.01-.003.97-.302 1.48.014a.632.632 0 0 1 .3.516c0 .189-.09.84-1.29 1.21l.014.173c.038.005.905.122.905.82v.006l.001.007.001.022c0 .095-.049.459-.757.735-.176.026-.644.078-.836.019l-.056.167c.006.003.706.274.633.792l-.001.004v.005c0 .005-.041.498-1.118.792-.003 0-.812.164-1.227-.146l-.004-.003-.101.145.004.002c.003.003.322.22.323.527 0 .218-.16.436-.473.65-.084.042-1.26.6-2.232-.379l-.139.107c.002.002.156.285.044.535-.084.185-.291.315-.619.385-.006.002-1.016.165-1.461-.424l-.05-.066-.068.046c-.009.005-.82.542-1.276.343l-.007-.004-.008-.001c-.008-.002-.738-.178-.894-.79l-.173.013a.792.792 0 0 1-.288.486c-.235.185-.581.249-1.029.19-.066-.017-.81-.225-.81-1.087 0-.127.015-.267.052-.423l.052-.224-.188.13c-.01.008-1.081.742-1.592.068l-.003-.004-.007-.007c-.001-.001-.148-.163.199-.657.121-.163 1.854-2.31 1.872-2.331l.213-.264-.314.126c-.025.01-2.539.988-6.018-.116-.015-.006-1.885-.733-3.054-2.414-.041-.064-1.062-1.629-2.163-1.629h.01a1.254 1.254 0 0 0-.642.128l-.001-.054c0-.18.022-.462.134-.74l.012-.03-.009-.029c-.001-.005-.069-.246-.069-.564 0-.349.082-.791.422-1.115l.004-.004.004-.004c.04-.05.993-1.183 2.668-.144 0 0 .043.023.092-.006.046-.032.042-.08.042-.08ZM21.594.008c-.158.038-.28.227-.327.504-.026.243-.236.87-.238.877-.739 2.506-1.875 4.575-1.886 4.595-.534.987-1.045 2.277-1.05 2.29a6.654 6.654 0 0 0-.416 2.318c0 .392.036.644.043.689v.002c0 .367.485 4.28.631 5.455-1.715-.956-2.731.26-2.741.273l.008-.009c-.388.369-.48.856-.48 1.24 0 .287.051.515.071.59a2.22 2.22 0 0 0-.137.774c0 .127.01.208.011.216l.02.149.12-.09c.278-.208.644-.17.648-.17h.01c1.006 0 2.007 1.536 2.017 1.552 1.203 1.73 3.123 2.474 3.142 2.482 2.864.91 5.088.431 5.853.207-.457.567-1.589 1.97-1.69 2.106-.207.296-.265.505-.265.646 0 .141.056.212.081.237.432.565 1.195.337 1.658.074a1.931 1.931 0 0 0-.022.267c0 .261.062.494.184.693.273.444.748.56.769.565l.003.001h.005c.5.068.893-.01 1.167-.228a.954.954 0 0 0 .272-.348c.277.52.902.668.932.675l-.015-.005c.465.204 1.165-.186 1.378-.318.528.6 1.535.439 1.579.43.39-.083.64-.247.746-.486a.665.665 0 0 0 .048-.383c1.03.784 2.192.209 2.205.203l.005-.003.004-.003c.368-.249.553-.518.553-.798v-.003a.684.684 0 0 0-.104-.351c.449.107.948.006.975 0 1.222-.333 1.252-.932 1.252-.957v.01a.723.723 0 0 0 .007-.106c0-.31-.2-.533-.395-.677.25-.008.493-.045.51-.048h.01l.008-.005c.808-.312.878-.761.878-.906a.283.283 0 0 0-.003-.042c-.005-.517-.408-.793-.76-.914 1.035-.416 1.132-1.06 1.132-1.282a.81.81 0 0 0-.384-.665c-.302-.186-.72-.19-1.057-.15.833-.628.964-1.708.97-1.762a.964.964 0 0 0 .008-.122c0-.174-.054-.304-.16-.386-.246-.19-.664-.033-.729-.007l-3.533.975c-1.994.686-3.73.659-3.748.658-1.7.098-3.78-1.01-4.36-1.342.301-.157.579-.506.593-.524l.004-.006.004-.006a.81.81 0 0 0 .11-.39.633.633 0 0 0-.04-.218c-.097-.266-.35-.43-.493-.505.311-.454.315-1.058.315-1.085v-.01l-.002-.009c-.061-.289-.193-.497-.391-.619a.81.81 0 0 0-.387-.113 1.767 1.767 0 0 0 .468-1.069v-.012a.876.876 0 0 0-.773-.825h.007a.795.795 0 0 0-.271.047c.208-.192.377-.383.389-.397.27-.313.345-.615.345-.852 0-.273-.099-.459-.107-.472l-.001-.004-.003-.004a.32.32 0 0 0-.225-.137c-.216-.034-.513.095-.76.237.156-.245.287-.492.296-.51.304-.603.383-1.047.383-1.346 0-.31-.085-.464-.092-.477a.403.403 0 0 0-.302-.2c-.255-.032-.579.142-.848.333.162-.286.277-.553.285-.571.18-.426.241-.793.241-1.096 0-.601-.24-.943-.256-.964-.096-.149-.222-.229-.372-.233-.136-.005-.271.06-.391.142.189-.485.233-.961.236-.988.01-.075.014-.147.014-.217 0-.273-.075-.498-.224-.666a.969.969 0 0 0-.598-.3c.106-.337.149-.64.149-.9 0-.704-.286-1.115-.303-1.139l.008.014c-.072-.155-.177-.197-.252-.206-.16-.018-.329.105-.447.216a3.877 3.877 0 0 0-.242-1.176c-.115-.238-.25-.358-.405-.362a.39.39 0 0 0-.263.109C22.404.74 22.009.238 21.99.215c-.16-.212-.304-.23-.396-.207Z"/><path fill="#005695" d="M16.619 18.283a.142.142 0 0 1-.088-.068.22.22 0 0 1-.014-.166l.001-.006c.023-.113.116-.176.184-.162.084.023.125.121.095.238a.227.227 0 0 1-.1.148c-.028.017-.056.023-.078.016Zm-.272-.279a.437.437 0 0 0-.016.112c0 .067.016.131.048.186.042.076.11.13.192.151.069.02.146.009.217-.034a.402.402 0 0 0 .18-.26c.054-.205-.042-.401-.226-.45-.176-.036-.354.1-.395.296ZM22.224 1.919c-.007.028-.741 2.904-2.568 5.68a.089.089 0 0 0 .025.122c.04.027.095.016.122-.025 1.843-2.802 2.584-5.705 2.591-5.734a.088.088 0 1 0-.17-.043ZM23.149 3.314c-.005.02-.433 1.987-2.73 4.975a.089.089 0 0 0 .015.124c.04.03.095.023.124-.016 2.326-3.024 2.746-4.966 2.763-5.047a.088.088 0 1 0-.172-.036ZM23.964 5.173c-.012.028-1.208 2.853-2.75 4.2a.089.089 0 0 0-.009.125c.032.037.088.041.124.009 1.574-1.375 2.785-4.237 2.796-4.265a.089.089 0 0 0-.046-.116.088.088 0 0 0-.115.047ZM24.636 7.172c-.011.023-1.15 2.258-3.032 3.664a.089.089 0 0 0-.018.124c.029.039.084.047.123.018 1.916-1.431 3.072-3.703 3.084-3.726a.089.089 0 0 0-.039-.119.087.087 0 0 0-.118.04ZM24.839 10.292c-.013.015-1.27 1.465-2.823 1.981a.088.088 0 0 0-.056.112.087.087 0 0 0 .11.056c1.601-.532 2.85-1.972 2.902-2.034a.088.088 0 0 0-.01-.124.087.087 0 0 0-.123.01ZM25.432 12.412c-.011.011-1.111 1.136-2.96 1.43a.088.088 0 0 0-.073.1.088.088 0 0 0 .1.074c1.91-.303 3.014-1.433 3.06-1.48a.09.09 0 0 0-.003-.126.088.088 0 0 0-.124.002ZM25.558 14.07c-.01.008-1.097.764-2.821 1.066a.088.088 0 0 0 .03.175c1.766-.31 2.847-1.064 2.892-1.096a.089.089 0 0 0 .022-.123.088.088 0 0 0-.123-.022ZM26.475 15.689c-.007.005-.733.555-3.625.482a.088.088 0 0 0-.09.086.088.088 0 0 0 .086.09c2.982.076 3.71-.496 3.74-.52a.088.088 0 0 0-.111-.138ZM23.07 17.477a.089.089 0 0 0 .065.107c3.038.716 3.93.094 3.967.067a.088.088 0 0 0-.104-.143c-.008.006-.885.596-3.823-.097a.088.088 0 0 0-.105.066ZM24.308 18.938a.089.089 0 0 0 .064.107c1.514.38 2.409.227 2.447.22a.089.089 0 0 0-.031-.174c-.009.002-.9.152-2.374-.217a.088.088 0 0 0-.107.064ZM38.077 21.28c-.017.007-1.689.716-4.733.304a.088.088 0 0 0-.023.175c3.098.42 4.757-.288 4.826-.318a.088.088 0 0 0-.07-.162ZM33.49 22.83a.089.089 0 0 0 .061.11c.805.22 4.93.447 5.105.457a.089.089 0 0 0 .01-.177c-.043-.002-4.282-.235-5.068-.451a.088.088 0 0 0-.108.062ZM32.748 23.534a.09.09 0 0 0 .023.123c.55.377 4.861 1.458 5.044 1.504a.088.088 0 0 0 .107-.064.088.088 0 0 0-.064-.108c-1.542-.386-4.568-1.19-4.988-1.478a.088.088 0 0 0-.122.023ZM31.985 24.066a.09.09 0 0 0-.015.125c.34.439 3.992 2.543 4.148 2.632.042.024.096.01.12-.033a.088.088 0 0 0-.033-.12c-1.05-.604-3.832-2.246-4.096-2.589a.088.088 0 0 0-.124-.015ZM30.799 24.419a.089.089 0 0 0-.016.124c.503.661 2.712 3.135 2.806 3.24.032.037.088.04.124.007a.09.09 0 0 0 .007-.125c-.023-.026-2.298-2.574-2.798-3.23a.088.088 0 0 0-.123-.016ZM29.6 24.558a.089.089 0 0 0-.054.113c.306.87 1.683 3.464 1.741 3.574a.088.088 0 1 0 .155-.083c-.014-.027-1.429-2.693-1.73-3.55a.088.088 0 0 0-.112-.054ZM28.573 24.678a.088.088 0 0 0-.078.097c.091.865.461 2.92.465 2.94a.088.088 0 1 0 .173-.03c-.004-.021-.373-2.07-.463-2.928a.088.088 0 0 0-.097-.079ZM27.696 24.337a91.596 91.596 0 0 0-.98 2.468.09.09 0 0 0 .05.114.089.089 0 0 0 .115-.051c.005-.015.576-1.515.977-2.461a.089.089 0 0 0-.046-.117.088.088 0 0 0-.116.047Z"/></g></g><defs><clipPath id="a"><path fill="#fff" d="M0 0h40v38H0z"/></clipPath></defs></svg>